<svg width="858" height="1451" viewBox="0 0 858 1451" fill="none" xmlns="http://www.w3.org/2000/svg">
<path d="M410.5 919.5C360.333 930.167 240.9 931 164.5 849C208.833 837.167 325.1 838 391.5 892M371.5 823.5C385 781.667 390.3 672.6 355.5 577C339 597.5 321.1 644.5 329.5 662.5M366.5 404C414 355.167 513 236.5 515 164.5C465.5 193.167 361.2 282.9 364 386.5M398.5 184C426.333 167.333 482.6 131 485 119C467.5 115.833 449.566 117.243 426.066 137M392 176.5C391.667 135.833 404.2 48.3 457 23.5C462.333 43.8334 459.3 101.9 394.5 181.5M178 265.82C161.167 259.986 114.6 253.2 75 280C90.3333 299 122 339.4 180 345M268 239C254.667 215 213.4 161.5 155 149.5C146.333 170.333 140.1 224.3 184.5 273.5" stroke="#7A8C6B" stroke-width="5"/>
<path d="M342 1342C425.333 1309.5 603.5 1224.7 649.5 1145.5C589.167 1149 451 1176.1 381 1256.5M383.5 1230.5C383.833 1185.67 368.8 1081.9 296 1021.5C283.667 1054.83 278 1152.5 354 1276.5M644.5 950.5C708.5 962 840.1 958.7 854.5 853.5C838.667 866.333 798.851 884.68 761 878.5C736.5 874.5 712.5 887.5 712.5 887.5M623.5 939C574.5 928.167 491.9 868.9 553.5 718.5C557.5 750 567.168 793.737 584 817.5C609.5 853.5 606 842.5 627.5 882" stroke="#7A8C6B" stroke-width="5"/>
<path d="M454 1151.5C453 1153.5 429.1 1174.8 395.5 1232C353.5 1303.5 362 1289 339.5 1344.5C321.5 1388.9 328.667 1430.67 334.5 1446L317.5 1438.5C300.5 1404 338.5 1306 355.5 1275C361.973 1263.2 417.833 1180.83 445.5 1131.5M541.5 1047.5C570.5 1017.83 628 955.2 626 942C622.833 889.167 635.795 778.831 683.5 728.5C738 671 755.833 630.167 758.5 608.5C753.667 647.167 759.65 725.779 758.5 747.5C754 832.5 692 942.5 643 950C620.833 980.333 561.5 1052.9 533.5 1076.5M487.5 970C490.167 923.333 485.5 807.1 445.5 715.5C444 704.833 445.3 677.1 462.5 651.5C476.1 633.5 508.833 613.333 523.5 605.5C511.9 599.9 498 603.167 492.5 605.5C490.9 600.7 498.167 593.167 502 590C487.2 591.2 479.833 596.5 478 599C480 582.2 464.833 569.333 457 565C469.8 609.4 447.667 662.5 435 683.5C433.5 685.987 394 628.5 382 555.5C381.5 547.833 383.1 529.9 393.5 519.5M382 504.5C378.833 509.667 372.7 522.3 373.5 531.5M472 942C473.833 894.333 464.696 810.5 451 770.5C440.5 739.833 410.266 672.913 393.5 639C371.5 594.5 364.167 522.5 362.5 484C345.167 472.833 309.5 447.2 305.5 434M371 460.5C369.833 458.833 366.1 429.9 362.5 351.5M359.5 461.5C351.5 457.167 326.5 443.2 322.5 434M367.5 290.5C367.833 271 368.7 262.6 377.5 243M451 932.5C426.167 914.667 370.4 855.7 346 762.5M325 776.5C347.833 822.667 403.4 922 431 936" stroke="#7A8C6B" stroke-width="5" stroke-linecap="round"/>
<path d="M622.285 311.816C615.521 305.946 608.431 302.12 601.839 299.627C605.869 298.935 609.483 297.861 612.7 296.388C620.141 292.98 625.292 287.513 628.552 280.141C631.776 272.851 633.122 263.77 633.186 253.079C633.198 250.955 633.16 248.761 633.075 246.497C634.286 250.977 635.421 255.079 636.514 258.825C639.682 269.683 642.581 277.856 646.162 283.899C649.806 290.051 654.188 294.052 660.241 296.505C661.748 297.115 663.348 297.625 665.052 298.05C663.386 298.669 661.837 299.388 660.401 300.218C654.642 303.543 650.924 308.494 648.661 315.13C646.43 321.671 645.597 329.884 645.515 339.878C645.494 342.413 645.522 345.078 645.589 347.874C639.776 331.208 631.386 319.714 622.285 311.816Z" stroke="#BB8034" stroke-width="5"/>
<path d="M110.785 985.816C104.021 979.946 96.931 976.12 90.3393 973.627C94.3695 972.935 97.9826 971.861 101.2 970.388C108.641 966.98 113.792 961.513 117.052 954.141C120.276 946.851 121.622 937.77 121.686 927.079C121.698 924.955 121.66 922.761 121.575 920.497C122.786 924.977 123.921 929.079 125.014 932.825C128.182 943.683 131.081 951.856 134.662 957.899C138.306 964.051 142.688 968.052 148.741 970.505C150.248 971.115 151.848 971.625 153.552 972.05C151.886 972.669 150.337 973.388 148.901 974.218C143.142 977.543 139.424 982.494 137.161 989.13C134.93 995.671 134.097 1003.88 134.015 1013.88C133.994 1016.41 134.022 1019.08 134.089 1021.87C128.276 1005.21 119.886 993.714 110.785 985.816Z" stroke="#BB8034" stroke-width="5"/>
<path d="M28.8387 74.6136C24.848 70.3938 20.6726 67.4933 16.7107 65.5005C18.8011 64.9493 20.7227 64.1897 22.4779 63.2103C27.4977 60.409 30.8717 55.9684 32.9749 50.1733C34.8138 45.1064 35.7008 38.9603 35.9105 31.836C36.0424 32.3977 36.1732 32.9498 36.3031 33.4923C38.3333 41.9704 40.1975 48.3835 42.5118 53.1438C44.8684 57.9913 47.768 61.2843 51.9033 63.3257C52.5537 63.6468 53.2279 63.9333 53.927 64.1889C53.2097 64.5665 52.5253 64.9834 51.8736 65.4418C47.9698 68.188 45.547 72.208 44.0931 77.4023C42.6555 82.5385 42.122 88.9708 42.0693 96.7788C42.0683 96.9323 42.0675 97.0864 42.0668 97.2411C38.4928 87.2101 33.8493 79.912 28.8387 74.6136Z" stroke="#BB8034" stroke-width="5"/>
<path d="M743.839 1390.61C739.848 1386.39 735.673 1383.49 731.711 1381.5C733.801 1380.95 735.723 1380.19 737.478 1379.21C742.498 1376.41 745.872 1371.97 747.975 1366.17C749.814 1361.11 750.701 1354.96 750.91 1347.84C751.042 1348.4 751.173 1348.95 751.303 1349.49C753.333 1357.97 755.198 1364.38 757.512 1369.14C759.868 1373.99 762.768 1377.28 766.903 1379.33C767.554 1379.65 768.228 1379.93 768.927 1380.19C768.21 1380.57 767.525 1380.98 766.874 1381.44C762.97 1384.19 760.547 1388.21 759.093 1393.4C757.655 1398.54 757.122 1404.97 757.069 1412.78C757.068 1412.93 757.067 1413.09 757.067 1413.24C753.493 1403.21 748.849 1395.91 743.839 1390.61Z" stroke="#BB8034" stroke-width="5"/>
<path d="M424.729 1113C417.896 1113 394.7 1106.6 381.5 1091C382.667 1103.67 391.2 1128.8 416 1128C416 1137.33 412.8 1156.1 400 1156.5C413 1165 442.5 1143.8 446.5 1131C445.667 1147.33 469.7 1170.2 484.5 1165C465.5 1145 463.3 1135.8 474.5 1131C489.667 1122.67 522.4 1108.7 532 1119.5C532.333 1114.17 528.3 1103.1 509.5 1101.5C521.333 1093.5 544.1 1069.4 540.5 1037C534.167 1048.67 520.3 1069.4 515.5 1059M467.697 948.5C466.99 943.164 466.216 938.157 465.5 934C479.5 939.5 508.5 1035.5 513.5 1057C518.5 1078.5 520.219 1117.74 455 1123C406.5 1126.91 396.455 1051.55 400 1034.5C410.5 984 411.667 970 412 944.5C421.6 948.9 425.667 983.667 426.5 1000.5C437 1000.5 430.847 956.812 429 948.5C426 935 437.296 953.702 442.768 965M467.697 948.5C470.448 969.262 472.183 995 465.5 995C459.553 995 449.915 979.76 442.768 965M467.697 948.5C462.716 951.7 454.824 927.167 451.5 914.5C451.43 932.667 449.585 968.2 442.768 965M423.33 972C427.33 963 427.833 931.863 433.5 926.5C436.924 936.333 445.583 960.5 447.764 958.5M325.5 777C323.5 773 277.1 769 269.5 773C260 778 281 753 318.5 759V741.5L338.5 755C337.5 743.667 338.3 720.5 349.5 718.5L350.579 729.5M346 763.5C346 761.5 380.5 742.5 372.5 708C372.152 706.5 358.5 737.167 352 744L350.579 729.5M275.5 763.5C263.167 761.667 255.38 744.905 244.5 697.5C237.5 667 214.167 646 196 650.5C199.66 648.136 205.581 644.796 212 642.058M350.579 729.5C362.909 715 364.36 685.87 335.5 667C309.5 650 275.833 596.833 262.5 563.5C256.774 571.208 256.04 583.21 257.259 594.5M257.259 594.5C258.255 603.716 260.552 612.457 262.5 618L229 606.348M257.259 594.5L216.5 586L229 606.348M229 606.348L216.5 602L225.25 619.75M225.25 619.75L234 637.5C227.924 636.415 219.612 638.813 212 642.058M225.25 619.75H202L212 642.058M393.5 519.5C396.5 515 435.5 518.7 441.5 527.5C439.83 523.104 436.109 516.751 430.5 512.492M382 504.5C386 497.5 364.667 468.333 356.5 455.5C369.7 455.5 387 485.5 394 500.5L398.5 486L411 509C418.938 506.543 425.476 508.677 430.5 512.492M372.069 465.5C371.903 456.833 376.4 434.3 394 423.5C411.6 412.7 422.667 392.667 426 384C425.77 388.199 425.258 394.134 424.406 400.5M430.5 512.492C453.3 500.485 464.667 441.495 467.5 413.5C466.774 416.645 464.384 420.082 461.126 423.5M424.406 400.5C422.791 412.579 419.953 426.213 415.5 432.5C423.119 424.614 435.262 412.978 445.5 406.5M424.406 400.5C433.604 394.667 452.6 381.3 455 374.5L445.5 406.5M445.5 406.5C453 405.396 456.257 402.896 458 402.5C447.167 415.833 424.9 441 434.5 443C441.476 439.163 453.611 431.384 461.126 423.5M448.5 413.5L467.5 391.5L461.126 423.5M330 133.5C335 145.333 342 174.1 330 194.5C318 214.9 335.5 225.333 346.5 230C342.333 229.5 332 230 323 235.5C338 235.5 376 238 378 244C386.167 232.833 401.1 212.5 419.5 206.5C417.333 205.667 410.4 205.1 400 209.5C403.167 204.167 404.1 187.7 382.5 164.5C360.9 141.3 360.833 126.5 363.5 122L356 145L348 130V147.5L330 133.5Z" stroke="#5E0B15" stroke-width="5"/>
<path d="M246.5 300.5C237.667 276 232.3 222.1 287.5 244.5C290.5 245.667 302.5 247.3 326.5 244.5C350.5 241.7 341.5 263.333 334 274.5M284.5 317.5C290.5 299.333 314.9 262.2 352.5 281C390.1 299.8 372.167 314.167 358.5 319C361.333 321.5 367.6 327.2 370 330C373 333.5 365 367 316.5 371.5M295.5 352C316.333 369.167 353.7 413.3 314.5 434.5C306.333 432.333 287.8 431.1 279 443.5C268 459 234 437 232.5 419M259.5 385C250 410.167 210.7 451 169.5 403C171 399.333 173.1 391.1 169.5 387.5C165 383 158 351 211.5 344M239.894 260.5C229.56 253.833 201.6 244.5 184 274.5C177.333 276.833 164 283.2 164 290C164 298.5 157.897 337.5 187.897 350M469.5 571.5C471.5 569 462.8 526.2 474 513C471.333 529.167 473.4 558.5 503 546.5C507.333 563.833 522 596.9 546 590.5C570 584.1 597.333 594.5 608 600.5C598.295 605.451 579.824 612.285 559.298 614.5M517.5 611.5C519.5 614.5 545.278 616.013 559.298 614.5M470 517C467.333 510.333 464.4 495 474 487C483.6 479 502.333 491 510.5 498M510.5 498C517.167 506.667 529.3 534.4 524.5 550M510.5 498C532 485 581.5 471.9 591.5 531.5C592.667 536.833 590.1 550.1 570.5 560.5M590.059 541.5C593.226 547.333 605.5 564 623.5 564C641.5 564 647 576.667 647.5 583L641.5 606M569 581.5C583.333 577.5 617.5 574.4 639.5 594C638.167 599.5 637.6 610.7 646 611.5C656.5 612.5 587.097 628.5 559.298 614.5" stroke="#AE6870" stroke-width="5"/>
<path d="M528.015 555.298L530.272 556.265L531.28 554.026C531.932 552.576 533.243 550.408 534.956 548.742C536.696 547.049 538.457 546.234 540.146 546.475C542.214 546.77 543.85 547.938 544.773 549.316C545.724 550.736 545.731 552.023 545.305 552.803L542.794 557.406L547.952 556.459C552.036 555.709 555.744 555.259 558.889 555.932C561.821 556.56 564.384 558.188 566.245 562.079C568.207 566.182 567.796 568.904 566.979 570.335C566.149 571.79 564.737 572.315 563.524 572.055L561.448 576.46C564.166 578.612 565.292 579.915 565.693 580.607C565.523 580.721 565.291 580.858 564.963 581.038C564.879 581.084 564.786 581.134 564.686 581.188C564.292 581.4 563.795 581.669 563.35 581.95C562.253 582.645 560.5 584.015 560.5 586.5H565.5C565.5 586.499 565.5 586.508 565.497 586.525C565.494 586.542 565.489 586.56 565.483 586.578C565.469 586.617 565.456 586.629 565.471 586.61C565.518 586.549 565.66 586.406 566.025 586.175C566.308 585.995 566.597 585.839 566.962 585.642C567.086 585.575 567.22 585.503 567.365 585.423C567.862 585.151 568.521 584.778 569.1 584.296C569.693 583.802 570.381 583.047 570.684 581.949C570.997 580.812 570.791 579.697 570.332 578.702C569.927 577.824 569.261 576.907 568.339 575.923C569.533 575.189 570.567 574.136 571.321 572.815C573.187 569.546 573.193 565.018 570.755 559.921C568.216 554.612 564.362 551.99 559.936 551.043C556.892 550.391 553.651 550.55 550.548 550.971C550.405 549.38 549.8 547.838 548.927 546.534C547.25 544.028 544.386 542.03 540.854 541.525C536.943 540.966 533.704 542.984 531.469 545.158C529.939 546.647 528.693 548.38 527.785 549.928C525.783 549.303 522.868 548.536 519.755 547.977C517.413 547.556 514.881 547.238 512.473 547.196C510.102 547.154 507.66 547.375 505.603 548.167L507.397 552.833C508.59 552.375 510.294 552.158 512.386 552.195C514.442 552.231 516.692 552.507 518.87 552.898C523.275 553.69 527.078 554.896 528.015 555.298ZM274.5 290.5C271.889 290.5 270.161 292.535 269.134 294.207C268.008 296.04 267.099 298.44 266.366 300.914C265.678 303.234 265.105 305.754 264.646 308.181C263.497 306.293 262.205 304.379 260.83 302.654C259.254 300.677 257.472 298.825 255.57 297.562C253.687 296.312 251.338 295.422 248.856 296.084C246.475 296.719 244.889 298.431 243.869 300.327C242.86 302.201 242.287 304.455 241.964 306.678C241.527 309.676 241.507 312.909 241.674 315.686C237.695 314.747 232.67 313.849 227.749 313.53C224.488 313.319 221.186 313.356 218.225 313.842C215.301 314.322 212.454 315.281 210.354 317.119C208.914 318.379 208.059 319.985 208.1 321.839C208.138 323.559 208.944 325.074 209.876 326.288C211.723 328.694 214.852 330.926 217.812 332.753C219.805 333.982 221.864 335.112 223.651 336.062C222.685 336.401 221.675 336.777 220.662 337.168C217.043 338.564 213.25 340.209 210.985 341.215C209.685 341.793 208.89 342.867 208.419 343.906C207.951 344.938 207.716 346.115 207.612 347.276C207.402 349.605 207.679 352.37 208.242 355.02C208.808 357.683 209.698 360.394 210.822 362.625C211.384 363.74 212.034 364.794 212.775 365.673C213.499 366.534 214.425 367.362 215.572 367.821C217.184 368.466 219.152 368.426 220.923 368.202C222.783 367.967 224.834 367.47 226.841 366.87C228.753 366.299 230.686 365.615 232.466 364.925C231.781 368.496 231.764 372.37 232.281 375.64C232.683 378.186 233.455 380.692 234.753 382.493C235.417 383.413 236.305 384.27 237.471 384.761C238.688 385.274 240.004 385.301 241.291 384.872C243.241 384.222 244.728 382.672 245.838 381.088C246.983 379.454 247.948 377.464 248.749 375.447C249.29 374.085 249.772 372.668 250.194 371.274C251.586 374.236 253.196 377.42 254.882 380.357C256.443 383.077 258.11 385.66 259.768 387.67C260.597 388.676 261.466 389.59 262.36 390.315C263.234 391.024 264.271 391.667 265.438 391.936C268.494 392.641 270.517 390.297 271.578 388.509C272.754 386.529 273.661 383.819 274.374 381C275.531 376.424 276.3 371.036 276.734 366.678C278.605 367.15 280.832 367.672 283.113 368.137C286.708 368.87 290.629 369.5 293.5 369.5C294.614 369.5 295.687 369.196 296.593 368.508C297.478 367.837 298.018 366.941 298.343 366.062C298.962 364.388 298.949 362.366 298.747 360.538C298.485 358.161 297.832 355.541 297.104 353.216C301.777 352.949 305.675 350.754 308.399 348.198C310.135 346.567 311.476 344.72 312.289 342.98C312.694 342.111 313 341.202 313.127 340.311C313.248 339.453 313.236 338.381 312.736 337.382C312.139 336.187 310.981 335.233 309.998 334.539C308.92 333.778 307.623 333.042 306.311 332.373C304.895 331.651 303.395 330.973 302.014 330.393C303.804 327.986 305.803 325.061 307.391 322.238C308.506 320.256 309.486 318.208 310.017 316.361C310.283 315.436 310.467 314.458 310.451 313.504C310.436 312.547 310.214 311.452 309.5 310.5C308.65 309.367 307.389 308.938 306.403 308.768C305.38 308.592 304.244 308.621 303.123 308.743C300.866 308.989 298.137 309.675 295.359 310.537C291.192 311.831 286.655 313.603 282.934 315.192C282.802 311.226 282.457 306.495 281.766 302.34C281.305 299.563 280.663 296.876 279.745 294.823C279.286 293.799 278.695 292.783 277.901 291.992C277.077 291.169 275.932 290.5 274.5 290.5Z" stroke="#5E0B15" stroke-width="5"/>
<path d="M257.5 325.5C265.833 325 280.5 328.1 272.5 344.5C262.5 365 239 340 257.5 325.5Z" stroke="#BB8034" stroke-width="5"/>
<path d="M529 573C528.5 566.667 534.488 552.187 546.5 565C554 573 527.5 586 529 573Z" stroke="#BB8034" stroke-width="5"/>
</svg>
