<svg width="535" height="86" viewBox="0 0 535 86" fill="none" xmlns="http://www.w3.org/2000/svg">
<path d="M43.5 0L53.2664 29.7123H84.871L59.3023 48.0755L69.0687 77.7877L43.5 59.4245L17.9313 77.7877L27.6977 48.0755L2.12904 29.7123H33.7336L43.5 0Z" fill="#BB8034"/>
<path d="M43.5 0L53.2664 29.7123H84.871L59.3023 48.0755L69.0687 77.7877L43.5 59.4245L17.9313 77.7877L27.6977 48.0755L2.12904 29.7123H33.7336L43.5 0Z" fill="#BB8034"/>
<path d="M43.5 0L53.2664 29.7123H84.871L59.3023 48.0755L69.0687 77.7877L43.5 59.4245L17.9313 77.7877L27.6977 48.0755L2.12904 29.7123H33.7336L43.5 0Z" fill="#BB8034"/>
<path d="M155.5 0L165.266 29.7123H196.871L171.302 48.0755L181.069 77.7877L155.5 59.4245L129.931 77.7877L139.698 48.0755L114.129 29.7123H145.734L155.5 0Z" fill="#BB8034"/>
<path d="M155.5 0L165.266 29.7123H196.871L171.302 48.0755L181.069 77.7877L155.5 59.4245L129.931 77.7877L139.698 48.0755L114.129 29.7123H145.734L155.5 0Z" fill="#BB8034"/>
<path d="M155.5 0L165.266 29.7123H196.871L171.302 48.0755L181.069 77.7877L155.5 59.4245L129.931 77.7877L139.698 48.0755L114.129 29.7123H145.734L155.5 0Z" fill="#BB8034"/>
<path d="M267.5 0L277.266 29.7123H308.871L283.302 48.0755L293.069 77.7877L267.5 59.4245L241.931 77.7877L251.698 48.0755L226.129 29.7123H257.734L267.5 0Z" fill="#BB8034"/>
<path d="M267.5 0L277.266 29.7123H308.871L283.302 48.0755L293.069 77.7877L267.5 59.4245L241.931 77.7877L251.698 48.0755L226.129 29.7123H257.734L267.5 0Z" fill="#BB8034"/>
<path d="M267.5 0L277.266 29.7123H308.871L283.302 48.0755L293.069 77.7877L267.5 59.4245L241.931 77.7877L251.698 48.0755L226.129 29.7123H257.734L267.5 0Z" fill="#BB8034"/>
<path d="M379.5 0L389.266 29.7123H420.871L395.302 48.0755L405.069 77.7877L379.5 59.4245L353.931 77.7877L363.698 48.0755L338.129 29.7123H369.734L379.5 0Z" fill="#BB8034"/>
<path d="M379.5 0L389.266 29.7123H420.871L395.302 48.0755L405.069 77.7877L379.5 59.4245L353.931 77.7877L363.698 48.0755L338.129 29.7123H369.734L379.5 0Z" fill="#BB8034"/>
<path d="M379.5 0L389.266 29.7123H420.871L395.302 48.0755L405.069 77.7877L379.5 59.4245L353.931 77.7877L363.698 48.0755L338.129 29.7123H369.734L379.5 0Z" fill="#BB8034"/>
<path d="M491.5 0L501.266 29.7123H532.871L507.302 48.0755L517.069 77.7877L491.5 59.4245L465.931 77.7877L475.698 48.0755L450.129 29.7123H481.734L491.5 0Z" fill="#BB8034"/>
<path d="M491.5 0L501.266 29.7123H532.871L507.302 48.0755L517.069 77.7877L491.5 59.4245L465.931 77.7877L475.698 48.0755L450.129 29.7123H481.734L491.5 0Z" fill="#BB8034"/>
<path d="M491.5 0L501.266 29.7123H532.871L507.302 48.0755L517.069 77.7877L491.5 59.4245L465.931 77.7877L475.698 48.0755L450.129 29.7123H481.734L491.5 0Z" fill="#BB8034"/>
</svg>
